<svg width="36" height="36" viewBox="0 0 36 36" fill="none" xmlns="http://www.w3.org/2000/svg">
  <path fill-rule="evenodd" clip-rule="evenodd" d="M35.1213 0.87868C36.2929 2.05025 36.2929 3.94975 35.1213 5.12132L5.12132 35.1213C3.94975 36.2929 2.05025 36.2929 0.87868 35.1213C-0.292893 33.9497 -0.292893 32.0503 0.87868 30.8787L30.8787 0.87868C32.0503 -0.292893 33.9497 -0.292893 35.1213 0.87868Z" fill="white"/>
  <path fill-rule="evenodd" clip-rule="evenodd" d="M3 3C3 1.34315 4.34315 5.96046e-08 6 5.96046e-08H33C34.6569 5.96046e-08 36 1.34315 36 3V30C36 31.6569 34.6569 33 33 33C31.3431 33 30 31.6569 30 30V6H6C4.34315 6 3 4.65685 3 3Z" fill="white"/>
</svg>
