<svg width="72" height="72" viewBox="0 0 72 72" fill="none" xmlns="http://www.w3.org/2000/svg">
  <path d="M0 36C0 16.1178 16.1178 0 36 0C55.8823 0 72 16.1178 72 36C72 55.8823 55.8823 72 36 72C16.1178 72 0 55.8823 0 36Z" fill="#E0CFFC"/>
  <path fill-rule="evenodd" clip-rule="evenodd" d="M25.1716 42.5049C25.9217 41.7547 26.9391 41.3333 28 41.3333C29.0609 41.3333 30.0783 41.7547 30.8284 42.5049C31.5786 43.255 32 44.2724 32 45.3333C32 46.3942 31.5786 47.4116 30.8284 48.1617C30.0783 48.9119 29.0609 49.3333 28 49.3333C26.9391 49.3333 25.9217 48.9119 25.1716 48.1617C24.4214 47.4116 24 46.3942 24 45.3333C24 44.2724 24.4214 43.255 25.1716 42.5049ZM28 44C27.6464 44 27.3072 44.1404 27.0572 44.3905C26.8071 44.6405 26.6667 44.9797 26.6667 45.3333C26.6667 45.6869 26.8071 46.0261 27.0572 46.2761C27.3072 46.5261 27.6464 46.6666 28 46.6666C28.3536 46.6666 28.6928 46.5261 28.9428 46.2761C29.1929 46.0261 29.3333 45.6869 29.3333 45.3333C29.3333 44.9797 29.1929 44.6405 28.9428 44.3905C28.6928 44.1404 28.3536 44 28 44Z" fill="#9747FF"/>
  <path fill-rule="evenodd" clip-rule="evenodd" d="M39.8382 42.5049C40.5884 41.7547 41.6058 41.3333 42.6667 41.3333C43.7275 41.3333 44.7449 41.7547 45.4951 42.5049C46.2452 43.255 46.6667 44.2724 46.6667 45.3333C46.6667 46.3942 46.2452 47.4116 45.4951 48.1617C44.7449 48.9119 43.7275 49.3333 42.6667 49.3333C41.6058 49.3333 40.5884 48.9119 39.8382 48.1617C39.0881 47.4116 38.6667 46.3942 38.6667 45.3333C38.6667 44.2724 39.0881 43.255 39.8382 42.5049ZM42.6667 44C42.313 44 41.9739 44.1404 41.7239 44.3905C41.4738 44.6405 41.3333 44.9797 41.3333 45.3333C41.3333 45.6869 41.4738 46.0261 41.7239 46.2761C41.9739 46.5262 42.313 46.6666 42.6667 46.6666C43.0203 46.6666 43.3594 46.5262 43.6095 46.2761C43.8595 46.0261 44 45.6869 44 45.3333C44 44.9797 43.8595 44.6405 43.6095 44.3905C43.3594 44.1404 43.0203 44 42.6667 44Z" fill="#9747FF"/>
  <path fill-rule="evenodd" clip-rule="evenodd" d="M24 24C24 23.2636 24.597 22.6666 25.3333 22.6666H28C28.7364 22.6666 29.3333 23.2636 29.3333 24V41.3333H42.6667C43.403 41.3333 44 41.9302 44 42.6666C44 43.403 43.403 44 42.6667 44H28C27.2636 44 26.6667 43.403 26.6667 42.6666V25.3333H25.3333C24.597 25.3333 24 24.7363 24 24Z" fill="#9747FF"/>
  <path fill-rule="evenodd" clip-rule="evenodd" d="M26.6701 26.5716C26.7225 25.8371 27.3605 25.2842 28.095 25.3367L46.7617 26.67C47.1307 26.6964 47.4722 26.8749 47.7044 27.1628C47.9367 27.4508 48.0389 27.8223 47.9866 28.1885L46.6533 37.5219C46.5594 38.1787 45.9969 38.6666 45.3333 38.6666H28C27.2636 38.6666 26.6667 38.0697 26.6667 37.3333C26.6667 36.5969 27.2636 36 28 36H44.1769L45.1444 29.228L27.905 27.9966C27.1705 27.9441 26.6176 27.3061 26.6701 26.5716Z" fill="#9747FF"/>
</svg>
