<svg width="72" height="72" viewBox="0 0 72 72" fill="none" xmlns="http://www.w3.org/2000/svg">
  <path d="M0 36C0 16.1178 16.1178 0 36 0C55.8823 0 72 16.1178 72 36C72 55.8823 55.8823 72 36 72C16.1178 72 0 55.8823 0 36Z" fill="#E0CFFC"/>
  <path fill-rule="evenodd" clip-rule="evenodd" d="M30.8974 23.6816C32.5151 23.0115 34.2489 22.6666 35.9998 22.6666C37.7508 22.6666 39.4846 23.0115 41.1023 23.6816C42.72 24.3516 44.1898 25.3338 45.4279 26.5719C46.666 27.81 47.6482 29.2798 48.3182 30.8975C48.9883 32.5152 49.3332 34.249 49.3332 36C49.3332 37.7509 48.9883 39.4847 48.3182 41.1024C47.6482 42.7201 46.666 44.1899 45.4279 45.428C44.1898 46.6662 42.72 47.6483 41.1023 48.3184C39.4846 48.9884 37.7508 49.3333 35.9998 49.3333C34.2489 49.3333 32.5151 48.9884 30.8974 48.3184C29.2797 47.6483 27.8099 46.6662 26.5717 45.428C25.3336 44.1899 24.3515 42.7201 23.6814 41.1024C23.0114 39.4847 22.6665 37.7509 22.6665 36C22.6665 34.249 23.0114 32.5152 23.6814 30.8975C24.3515 29.2798 25.3336 27.81 26.5717 26.5719C27.8099 25.3338 29.2797 24.3516 30.8974 23.6816ZM35.9998 25.3333C34.5991 25.3333 33.212 25.6092 31.9179 26.1452C30.6237 26.6813 29.4479 27.467 28.4574 28.4575C27.4669 29.448 26.6812 30.6239 26.1451 31.918C25.6091 33.2121 25.3332 34.5992 25.3332 36C25.3332 37.4007 25.6091 38.7878 26.1451 40.0819C26.6812 41.3761 27.4669 42.5519 28.4574 43.5424C29.4479 44.5329 30.6237 45.3186 31.9179 45.8547C33.212 46.3907 34.5991 46.6666 35.9998 46.6666C37.4006 46.6666 38.7877 46.3907 40.0818 45.8547C41.3759 45.3186 42.5518 44.5329 43.5423 43.5424C44.5328 42.5519 45.3185 41.3761 45.8546 40.0819C46.3906 38.7878 46.6665 37.4007 46.6665 36C46.6665 34.5992 46.3906 33.2121 45.8546 31.918C45.3185 30.6239 44.5328 29.448 43.5423 28.4575C42.5518 27.467 41.3759 26.6813 40.0818 26.1452C38.7877 25.6092 37.4006 25.3333 35.9998 25.3333Z" fill="#9747FF"/>
  <path fill-rule="evenodd" clip-rule="evenodd" d="M35.2602 34.8906C35.8729 34.4821 36.7008 34.6477 37.1092 35.2604L39.7759 39.2604C40.1844 39.8731 40.0188 40.7009 39.4061 41.1094C38.7934 41.5178 37.9656 41.3523 37.5571 40.7396L34.8904 36.7396C34.482 36.1269 34.6475 35.299 35.2602 34.8906Z" fill="#9747FF"/>
  <path fill-rule="evenodd" clip-rule="evenodd" d="M35.9998 28C36.7362 28 37.3332 28.5969 37.3332 29.3333V36C37.3332 36.7363 36.7362 37.3333 35.9998 37.3333C35.2635 37.3333 34.6665 36.7363 34.6665 36V29.3333C34.6665 28.5969 35.2635 28 35.9998 28Z" fill="#9747FF"/>
</svg>
