<svg width="72" height="72" viewBox="0 0 72 72" fill="none" xmlns="http://www.w3.org/2000/svg">
  <path d="M0 36C0 16.1178 16.1178 0 36 0C55.8823 0 72 16.1178 72 36C72 55.8823 55.8823 72 36 72C16.1178 72 0 55.8823 0 36Z" fill="#E0CFFC"/>
  <path fill-rule="evenodd" clip-rule="evenodd" d="M26.8565 25.9807C27.0975 25.5791 27.5315 25.3334 27.9999 25.3334H43.9999C44.4682 25.3334 44.9022 25.5791 45.1432 25.9807L49.1432 32.6474C49.4438 33.1485 49.3832 33.7869 48.9935 34.2224L37.6602 46.8891C37.6468 46.9041 37.633 46.9188 37.6189 46.9332C37.4079 47.1486 37.156 47.3197 36.8779 47.4365C36.5999 47.5533 36.3014 47.6135 35.9999 47.6135C35.6983 47.6135 35.3998 47.5533 35.1218 47.4365C34.8438 47.3197 34.5918 47.1486 34.3808 46.9332C34.3667 46.9188 34.353 46.9041 34.3395 46.8891L23.0062 34.2224C22.6165 33.7869 22.5559 33.1485 22.8565 32.6474L26.8565 25.9807ZM28.7548 28L25.6488 33.1767L35.9999 44.7455L46.3509 33.1767L43.2449 28H28.7548Z" fill="#9747FF"/>
  <path fill-rule="evenodd" clip-rule="evenodd" d="M32.1525 30.5901C32.784 30.9689 32.9887 31.7879 32.6098 32.4194L32.3197 32.903L34.3198 35.1031C34.8151 35.648 34.775 36.4913 34.2301 36.9866C33.6852 37.482 32.8419 37.4418 32.3466 36.8969L29.6799 33.9636C29.2842 33.5283 29.2205 32.8851 29.5232 32.3807L30.3232 31.0474C30.7021 30.4159 31.5211 30.2112 32.1525 30.5901Z" fill="#9747FF"/>
</svg>
