<svg width="72" height="72" viewBox="0 0 72 72" fill="none" xmlns="http://www.w3.org/2000/svg">
  <path d="M0 36C0 16.1178 16.1178 0 36 0C55.8823 0 72 16.1178 72 36C72 55.8823 55.8823 72 36 72C16.1178 72 0 55.8823 0 36Z" fill="#E0CFFC"/>
  <path fill-rule="evenodd" clip-rule="evenodd" d="M32.2288 30.8954C33.229 29.8952 34.5855 29.3333 36 29.3333C37.4145 29.3333 38.771 29.8952 39.7712 30.8954C40.7714 31.8956 41.3333 33.2521 41.3333 34.6666C41.3333 36.0811 40.7714 37.4376 39.7712 38.4378C38.771 39.438 37.4145 39.9999 36 39.9999C34.5855 39.9999 33.229 39.438 32.2288 38.4378C31.2286 37.4376 30.6667 36.0811 30.6667 34.6666C30.6667 33.2521 31.2286 31.8956 32.2288 30.8954ZM36 31.9999C35.2928 31.9999 34.6145 32.2809 34.1144 32.781C33.6143 33.2811 33.3333 33.9594 33.3333 34.6666C33.3333 35.3738 33.6143 36.0521 34.1144 36.5522C34.6145 37.0523 35.2928 37.3333 36 37.3333C36.7072 37.3333 37.3855 37.0523 37.8856 36.5522C38.3857 36.0521 38.6667 35.3738 38.6667 34.6666C38.6667 33.9594 38.3857 33.2811 37.8856 32.781C37.3855 32.2809 36.7072 31.9999 36 31.9999Z" fill="#9747FF"/>
  <path fill-rule="evenodd" clip-rule="evenodd" d="M36 25.3337C34.1541 25.3337 32.3496 25.881 30.8147 26.9066C29.2799 27.9321 28.0836 29.3898 27.3772 31.0952C26.6707 32.8006 26.4859 34.6772 26.846 36.4877C27.2061 38.2981 28.0949 39.9611 29.4 41.2663V41.2663L35.0583 46.9233C35.3083 47.1731 35.6473 47.3134 36.0007 47.3134C36.3541 47.3134 36.693 47.1731 36.943 46.9233L42.5998 41.2665V41.2665C43.9051 39.9612 44.7939 38.2981 45.154 36.4877C45.5141 34.6772 45.3293 32.8006 44.6228 31.0952C43.9164 29.3898 42.7201 27.9321 41.1853 26.9066C39.6504 25.881 37.8459 25.3337 36 25.3337ZM29.3332 24.6893C31.3066 23.3708 33.6267 22.667 36 22.667C38.3734 22.667 40.6934 23.3708 42.6668 24.6893C44.6402 26.0079 46.1782 27.882 47.0865 30.0746C47.9948 32.2673 48.2324 34.6801 47.7695 37.0078C47.3065 39.3356 46.1637 41.4738 44.4855 43.1521L38.8281 48.8094C38.0781 49.5587 37.0608 49.98 36.0007 49.98C34.9405 49.98 33.9237 49.5592 33.1737 48.8099L27.5146 43.1522C25.8365 41.4739 24.6935 39.3356 24.2305 37.0078C23.7676 34.6801 24.0052 32.2673 24.9135 30.0746C25.8218 27.882 27.3599 26.0079 29.3332 24.6893Z" fill="#9747FF"/>
</svg>
