<svg width="72" height="72" viewBox="0 0 72 72" fill="none" xmlns="http://www.w3.org/2000/svg">
  <path d="M0 36C0 16.1178 16.1178 0 36 0C55.8823 0 72 16.1178 72 36C72 55.8823 55.8823 72 36 72C16.1178 72 0 55.8823 0 36Z" fill="#E0CFFC"/>
  <path fill-rule="evenodd" clip-rule="evenodd" d="M31.2151 26.6816C30.483 26.6035 29.7427 26.6779 29.0407 26.8999C28.3387 27.122 27.6903 27.4871 27.1363 27.972C26.5824 28.457 26.1348 29.0515 25.8218 29.7179C25.5089 30.3844 25.3373 31.1084 25.3179 31.8444C25.2985 32.5804 25.4318 33.3125 25.7092 33.9945C25.9866 34.6765 26.4023 35.2937 26.9299 35.8072L26.9384 35.8154L36.0001 44.7901L45.0618 35.8154C45.0895 35.788 45.118 35.7621 45.1473 35.7377C45.6323 35.2403 46.0156 34.6526 46.2755 34.0075C46.5498 33.3267 46.6806 32.5966 46.6597 31.8629C46.6388 31.1293 46.4667 30.4078 46.1542 29.7437C45.8417 29.0795 45.3954 28.4871 44.8434 28.0034C44.2914 27.5196 43.6455 27.1551 42.9461 26.9325C42.2467 26.7099 41.5088 26.634 40.7788 26.7097C40.0487 26.7853 39.3421 27.0109 38.7032 27.3722C38.0643 27.7335 37.5069 28.2227 37.0658 28.8094C36.8131 29.1454 36.4168 29.3426 35.9964 29.3414C35.576 29.3402 35.1807 29.1409 34.9299 28.8034C34.4907 28.2125 33.9339 27.7189 33.2946 27.3537C32.6553 26.9886 31.9473 26.7597 31.2151 26.6816ZM46.8463 37.8012L36.9383 47.6141C36.4187 48.1287 35.5815 48.1287 35.0618 47.6141L25.0658 37.714C24.2764 36.9447 23.6545 36.0204 23.2391 34.9993C22.8229 33.9763 22.6231 32.8782 22.6522 31.7742C22.6813 30.6702 22.9386 29.5841 23.4081 28.5845C23.8775 27.5848 24.5488 26.6931 25.3798 25.9656C26.2107 25.2382 27.1833 24.6906 28.2363 24.3575C29.2893 24.0244 30.3998 23.9128 31.498 24.03C32.5962 24.1471 33.6582 24.4904 34.6172 25.0382C35.1159 25.323 35.5812 25.66 36.0055 26.0425C36.4295 25.6646 36.8936 25.332 37.3905 25.0509C38.3489 24.509 39.4088 24.1707 40.5039 24.0572C41.599 23.9437 42.7057 24.0575 43.7548 24.3914C44.8039 24.7253 45.7728 25.2722 46.6009 25.9978C47.4289 26.7233 48.0983 27.612 48.5671 28.6082C49.0359 29.6044 49.294 30.6866 49.3253 31.7871C49.3566 32.8876 49.1604 33.9828 48.749 35.004C48.3376 36.0252 47.7198 36.9505 46.9344 37.722C46.9059 37.7499 46.8765 37.7763 46.8463 37.8012Z" fill="#9747FF"/>
  <path fill-rule="evenodd" clip-rule="evenodd" d="M36.9429 27.0573C37.4636 27.578 37.4636 28.4222 36.9429 28.9429L32.5524 33.3334L33.2762 34.0573C33.6755 34.4566 34.3246 34.4566 34.7239 34.0573L36.0573 32.7239C37.103 31.6782 38.5212 31.0908 40.0001 31.0908C41.4789 31.0908 42.8972 31.6782 43.9429 32.7239L46.9429 35.7239C47.4636 36.2446 47.4636 37.0888 46.9429 37.6095C46.4222 38.1302 45.578 38.1302 45.0573 37.6095L42.0573 34.6096C41.5117 34.064 40.7717 33.7574 40.0001 33.7574C39.2285 33.7574 38.4885 34.064 37.9429 34.6096L36.6096 35.9429C35.1689 37.3836 32.8313 37.3836 31.3906 35.9429L30.6666 35.2189C30.1667 34.7188 29.8857 34.0405 29.8857 33.3334C29.8857 32.6263 30.1665 31.9481 30.6665 31.4481L35.0573 27.0573C35.578 26.5366 36.4222 26.5366 36.9429 27.0573Z" fill="#9747FF"/>
  <path fill-rule="evenodd" clip-rule="evenodd" d="M35.7239 39.7239C36.2446 39.2032 37.0889 39.2032 37.6096 39.7239L40.2762 42.3906C40.7969 42.9113 40.7969 43.7555 40.2762 44.2762C39.7555 44.7969 38.9113 44.7969 38.3906 44.2762L35.7239 41.6095C35.2032 41.0888 35.2032 40.2446 35.7239 39.7239Z" fill="#9747FF"/>
  <path fill-rule="evenodd" clip-rule="evenodd" d="M39.0573 36.3906C39.578 35.8699 40.4222 35.8699 40.9429 36.3906L43.6096 39.0573C44.1303 39.578 44.1303 40.4222 43.6096 40.9429C43.0889 41.4636 42.2446 41.4636 41.7239 40.9429L39.0573 38.2762C38.5366 37.7555 38.5366 36.9113 39.0573 36.3906Z" fill="#9747FF"/>
</svg>
