<svg width="72" height="72" viewBox="0 0 72 72" fill="none" xmlns="http://www.w3.org/2000/svg">
  <path d="M0 36C0 16.1178 16.1178 0 36 0C55.8823 0 72 16.1178 72 36C72 55.8823 55.8823 72 36 72C16.1178 72 0 55.8823 0 36Z" fill="#E0CFFC"/>
  <path fill-rule="evenodd" clip-rule="evenodd" d="M33.1714 34.5049C33.9216 33.7547 34.939 33.3333 35.9998 33.3333C37.0607 33.3333 38.0781 33.7547 38.8283 34.5049C39.5784 35.255 39.9998 36.2724 39.9998 37.3333C39.9998 38.3942 39.5784 39.4116 38.8283 40.1617C38.0781 40.9119 37.0607 41.3333 35.9998 41.3333C34.939 41.3333 33.9216 40.9119 33.1714 40.1617C32.4213 39.4116 31.9998 38.3942 31.9998 37.3333C31.9998 36.2724 32.4213 35.255 33.1714 34.5049ZM35.9998 36C35.6462 36 35.3071 36.1404 35.057 36.3905C34.807 36.6405 34.6665 36.9797 34.6665 37.3333C34.6665 37.6869 34.807 38.0261 35.057 38.2761C35.3071 38.5262 35.6462 38.6666 35.9998 38.6666C36.3535 38.6666 36.6926 38.5262 36.9426 38.2761C37.1927 38.0261 37.3332 37.6869 37.3332 37.3333C37.3332 36.9797 37.1927 36.6405 36.9426 36.3905C36.6926 36.1404 36.3535 36 35.9998 36Z" fill="#9747FF"/>
  <path fill-rule="evenodd" clip-rule="evenodd" d="M33.3332 45.3333C32.9795 45.3333 32.6404 45.4738 32.3904 45.7238C32.1403 45.9739 31.9998 46.313 31.9998 46.6666V48C31.9998 48.7363 31.4029 49.3333 30.6665 49.3333C29.9301 49.3333 29.3332 48.7363 29.3332 48V46.6666C29.3332 45.6058 29.7546 44.5883 30.5047 43.8382C31.2549 43.0881 32.2723 42.6666 33.3332 42.6666H38.6665C39.7274 42.6666 40.7448 43.0881 41.4949 43.8382C42.2451 44.5883 42.6665 45.6058 42.6665 46.6666V48C42.6665 48.7363 42.0696 49.3333 41.3332 49.3333C40.5968 49.3333 39.9998 48.7363 39.9998 48V46.6666C39.9998 46.313 39.8594 45.9739 39.6093 45.7238C39.3593 45.4738 39.0201 45.3333 38.6665 45.3333H33.3332Z" fill="#9747FF"/>
  <path fill-rule="evenodd" clip-rule="evenodd" d="M39.8381 23.8382C40.5882 23.0881 41.6056 22.6666 42.6665 22.6666C43.7274 22.6666 44.7448 23.0881 45.4949 23.8382C46.2451 24.5883 46.6665 25.6058 46.6665 26.6666C46.6665 27.7275 46.2451 28.7449 45.4949 29.4951C44.7448 30.2452 43.7274 30.6666 42.6665 30.6666C41.6056 30.6666 40.5882 30.2452 39.8381 29.4951C39.0879 28.7449 38.6665 27.7275 38.6665 26.6666C38.6665 25.6058 39.0879 24.5883 39.8381 23.8382ZM42.6665 25.3333C42.3129 25.3333 41.9737 25.4738 41.7237 25.7238C41.4736 25.9739 41.3332 26.313 41.3332 26.6666C41.3332 27.0202 41.4736 27.3594 41.7237 27.6094C41.9737 27.8595 42.3129 28 42.6665 28C43.0201 28 43.3593 27.8595 43.6093 27.6094C43.8594 27.3594 43.9998 27.0202 43.9998 26.6666C43.9998 26.313 43.8594 25.9739 43.6093 25.7238C43.3593 25.4738 43.0201 25.3333 42.6665 25.3333Z" fill="#9747FF"/>
  <path fill-rule="evenodd" clip-rule="evenodd" d="M41.3332 33.3333C41.3332 32.5969 41.9301 32 42.6665 32H45.3332C46.394 32 47.4115 32.4214 48.1616 33.1715C48.9117 33.9217 49.3332 34.9391 49.3332 36V37.3333C49.3332 38.0697 48.7362 38.6666 47.9998 38.6666C47.2635 38.6666 46.6665 38.0697 46.6665 37.3333V36C46.6665 35.6463 46.526 35.3072 46.276 35.0572C46.0259 34.8071 45.6868 34.6666 45.3332 34.6666H42.6665C41.9301 34.6666 41.3332 34.0697 41.3332 33.3333Z" fill="#9747FF"/>
  <path fill-rule="evenodd" clip-rule="evenodd" d="M26.5047 23.8382C27.2549 23.0881 28.2723 22.6666 29.3332 22.6666C30.394 22.6666 31.4115 23.0881 32.1616 23.8382C32.9117 24.5883 33.3332 25.6058 33.3332 26.6666C33.3332 27.7275 32.9117 28.7449 32.1616 29.4951C31.4115 30.2452 30.394 30.6666 29.3332 30.6666C28.2723 30.6666 27.2549 30.2452 26.5047 29.4951C25.7546 28.7449 25.3332 27.7275 25.3332 26.6666C25.3332 25.6058 25.7546 24.5883 26.5047 23.8382ZM29.3332 25.3333C28.9795 25.3333 28.6404 25.4738 28.3904 25.7238C28.1403 25.9739 27.9998 26.313 27.9998 26.6666C27.9998 27.0202 28.1403 27.3594 28.3904 27.6094C28.6404 27.8595 28.9795 28 29.3332 28C29.6868 28 30.0259 27.8595 30.276 27.6094C30.526 27.3594 30.6665 27.0202 30.6665 26.6666C30.6665 26.313 30.526 25.9739 30.276 25.7238C30.0259 25.4738 29.6868 25.3333 29.3332 25.3333Z" fill="#9747FF"/>
  <path fill-rule="evenodd" clip-rule="evenodd" d="M26.6665 34.6666C26.3129 34.6666 25.9737 34.8071 25.7237 35.0572C25.4736 35.3072 25.3332 35.6463 25.3332 36V37.3333C25.3332 38.0697 24.7362 38.6666 23.9998 38.6666C23.2635 38.6666 22.6665 38.0697 22.6665 37.3333V36C22.6665 34.9391 23.0879 33.9217 23.8381 33.1715C24.5882 32.4214 25.6056 32 26.6665 32H29.3332C30.0696 32 30.6665 32.5969 30.6665 33.3333C30.6665 34.0697 30.0696 34.6666 29.3332 34.6666H26.6665Z" fill="#9747FF"/>
</svg>
