<svg width="96" height="96" viewBox="0 0 96 96" fill="none" xmlns="http://www.w3.org/2000/svg">
  <path d="M0 47.9999C0 21.4902 21.4903 -0.00012207 48 -0.00012207C74.5097 -0.00012207 96 21.4902 96 47.9999C96 74.5095 74.5097 95.9999 48 95.9999C21.4903 95.9999 0 74.5095 0 47.9999Z" fill="#20C997"/>
  <path fill-rule="evenodd" clip-rule="evenodd" d="M62.5118 38.488C63.1627 39.1389 63.1627 40.1942 62.5118 40.8451L45.8451 57.5117C45.1943 58.1626 44.139 58.1626 43.4881 57.5117L35.1548 49.1784C34.5039 48.5275 34.5039 47.4722 35.1548 46.8214C35.8057 46.1705 36.8609 46.1705 37.5118 46.8214L44.6666 53.9762L60.1548 38.488C60.8057 37.8372 61.8609 37.8372 62.5118 38.488Z" fill="white"/>
</svg>
